<svg width="18" height="20" viewBox="0 0 18 20" fill="none" xmlns="http://www.w3.org/2000/svg">
<path fill-rule="evenodd" clip-rule="evenodd" d="M8.31616 1.03671C6.15404 1.28048 4.28384 2.55202 3.33024 4.42661C3.08706 4.9046 2.92198 5.36358 2.79255 5.92141C2.70555 6.29646 2.70334 6.36514 2.68947 9.11553L2.67529 11.9264L1.95984 12.9664C1.56637 13.5384 1.20193 14.0964 1.15001 14.2065C0.945117 14.6406 0.950372 15.1508 1.1642 15.5893C1.29249 15.8524 1.63093 16.2068 1.87885 16.3377C2.28209 16.5506 2.36478 16.5575 4.50486 16.5575H6.47205V16.7047C6.47205 16.9413 6.61602 17.4209 6.77651 17.7188C6.95051 18.0419 7.36983 18.4672 7.70084 18.6564C8.50214 19.1145 9.49822 19.1145 10.3009 18.6564C10.6189 18.4749 11.0475 18.0391 11.2236 17.718C11.3831 17.4275 11.5293 16.9435 11.5293 16.7063V16.5607L13.5937 16.5495C15.648 16.5384 15.6592 16.5379 15.8848 16.4495C16.3464 16.2687 16.7307 15.8944 16.906 15.4552C17.0231 15.1616 17.0322 14.6377 16.9254 14.336C16.88 14.2079 16.5556 13.6983 16.0886 13.0216L15.326 11.9163L15.3119 9.11051C15.2981 6.38568 15.2952 6.294 15.211 5.93379C14.8247 4.282 13.9347 2.9872 12.5561 2.07119C11.3319 1.25783 9.75894 0.874046 8.31616 1.03671ZM9.82532 1.89917C10.286 1.96471 11.0227 2.18644 11.416 2.37789C12.8848 3.09291 13.8925 4.31949 14.325 5.91869L14.4293 6.3047L14.4511 9.24098L14.4728 12.1773L15.2711 13.3421C15.7102 13.9828 16.088 14.5555 16.1107 14.6148C16.2621 15.011 15.9889 15.547 15.5745 15.6671C15.3379 15.7357 2.66347 15.7357 2.42689 15.6671C2.00789 15.5457 1.7376 15.0152 1.89066 14.6148C1.91334 14.5555 2.29117 13.9828 2.73024 13.3421L3.52858 12.1773L3.55165 9.24098C3.57686 6.02892 3.56552 6.1873 3.82415 5.43832C4.66006 3.01794 7.19219 1.52463 9.82532 1.89917ZM10.6601 16.7094C10.6601 16.8957 10.5278 17.2517 10.381 17.4604C9.71947 18.4011 8.28278 18.3958 7.61214 17.4502C7.46651 17.2449 7.34126 16.9002 7.34126 16.7048V16.5575H9.00067H10.6601V16.7094Z" fill="black" stroke="black" stroke-width="0.3"/>
</svg>
